M48
; DRILL file {KiCad 8.0.4} date 2024-07-28T20:35:57+0200
; FORMAT={-:-/ absolute / inch / decimal}
; #@! TF.CreationDate,2024-07-28T20:35:57+02:00
; #@! TF.GenerationSoftware,Kicad,Pcbnew,8.0.4
; #@! TF.FileFunction,MixedPlating,1,2
FMAT,2
INCH
; #@! TA.AperFunction,Plated,PTH,ViaDrill
T1C0.0118
; #@! TA.AperFunction,Plated,PTH,ComponentDrill
T2C0.0197
; #@! TA.AperFunction,Plated,PTH,ComponentDrill
T3C0.0315
; #@! TA.AperFunction,Plated,PTH,ComponentDrill
T4C0.0394
; #@! TA.AperFunction,Plated,PTH,ComponentDrill
T5C0.1260
; #@! TA.AperFunction,NonPlated,NPTH,ComponentDrill
T6C0.0354
%
G90
G05
T1
X2.528Y-3.344
X2.56Y-3.9
X2.61Y-3.0
X2.62Y-2.86
X2.62Y-3.6299
X2.638Y-2.664
X2.64Y-2.598
X2.72Y-3.91
X2.79Y-3.18
X2.84Y-3.63
X2.9139Y-3.19
X2.97Y-3.74
X3.07Y-3.06
X3.144Y-2.79
X3.146Y-2.72
X3.152Y-2.598
X3.23Y-3.4
X3.26Y-3.87
X3.32Y-3.58
X3.4252Y-3.592
X3.5496Y-4.0779
X3.6Y-3.13
X3.62Y-2.88
X3.6516Y-3.592
X3.8Y-3.13
X3.96Y-3.97
X3.97Y-3.34
X3.98Y-3.43
X4.03Y-3.37
X4.16Y-3.82
X4.36Y-3.65
X4.37Y-3.73
X4.46Y-3.6856
X4.56Y-3.85
X4.62Y-2.54
X4.67Y-3.82
X4.69Y-3.28
X4.7Y-2.5
X4.79Y-3.75
X4.87Y-2.75
X4.87Y-3.78
X4.9Y-2.95
X4.98Y-3.76
X5.04Y-2.49
X5.06Y-2.81
X5.12Y-2.76
X5.19Y-3.5
X5.37Y-3.68
X5.37Y-3.72
X5.4Y-2.56
X5.4Y-3.33
X5.4083Y-3.7542
X5.4276Y-3.28
X5.44Y-3.77
X5.4624Y-3.8155
X5.48Y-2.42
X5.48Y-2.53
X5.504Y-3.028
X5.52Y-2.51
X5.52Y-2.58
X5.616Y-2.298
X5.7Y-3.18
X5.73Y-3.14
X5.762Y-2.446
X5.77Y-3.11
X5.81Y-3.4
X5.82Y-2.54
X5.824Y-2.366
X5.84Y-3.85
X5.93Y-3.03
X5.95Y-2.41
X5.95Y-2.46
X5.95Y-2.56
X5.97Y-3.02
X5.9717Y-2.2537
X6.0Y-2.84
X6.034Y-2.675
X6.035Y-2.235
X6.05Y-2.37
X6.054Y-2.906
X6.09Y-2.81
X6.114Y-2.538
X6.114Y-2.598
X6.124Y-2.76
X6.138Y-2.512
X6.142Y-2.566
X6.142Y-2.622
X6.17Y-2.538
X6.17Y-2.596
X6.196Y-2.512
X6.196Y-2.622
X6.198Y-2.566
X6.224Y-2.54
X6.224Y-2.592
X6.276Y-2.34
X6.28Y-2.622
X6.42Y-2.88
X6.45Y-2.39
X6.46Y-2.296
X6.5Y-2.3449
X6.5Y-3.29
X6.65Y-2.62
X6.65Y-3.12
X6.654Y-2.134
X6.67Y-2.51
X6.71Y-3.12
X6.72Y-2.7
X6.74Y-2.96
X6.772Y-2.614
X6.8Y-2.818
X6.954Y-3.286
X7.4213Y-2.81
X7.4521Y-2.7093
X7.4921Y-2.2677
X7.4961Y-2.0512
X7.5241Y-3.1777
X7.5295Y-3.1348
X7.5315Y-2.5315
X7.6102Y-2.5236
X7.7165Y-2.1811
X7.7205Y-2.5236
X7.7657Y-2.4016
X7.815Y-2.3917
X7.815Y-2.7126
X7.8484Y-2.8858
X7.9134Y-2.5886
X8.0039Y-2.2677
X8.0079Y-2.0512
X8.0276Y-2.8858
X8.0315Y-2.372
X8.044Y-2.758
X8.1496Y-2.5
T2
X1.9055Y-2.15
X1.9055Y-4.0
X1.9332Y-2.0832
X1.9332Y-2.2168
X1.9332Y-3.9332
X1.9332Y-4.0668
X2.0Y-2.0555
X2.0Y-2.2445
X2.0Y-3.9055
X2.0Y-4.0945
X2.0668Y-2.0832
X2.0668Y-2.2168
X2.0668Y-3.9332
X2.0668Y-4.0668
X2.0945Y-2.15
X2.0945Y-4.0
X6.7555Y-2.15
X6.7555Y-4.0
X6.7832Y-2.0832
X6.7832Y-2.2168
X6.7832Y-3.9332
X6.7832Y-4.0668
X6.85Y-2.0555
X6.85Y-2.2445
X6.85Y-3.9055
X6.85Y-4.0945
X6.9168Y-2.0832
X6.9168Y-2.2168
X6.9168Y-3.9332
X6.9168Y-4.0668
X6.9445Y-2.15
X6.9445Y-4.0
X7.2555Y-2.15
X7.2555Y-3.3563
X7.2832Y-2.0832
X7.2832Y-2.2168
X7.2832Y-3.2895
X7.2832Y-3.4231
X7.35Y-2.0555
X7.35Y-2.2445
X7.35Y-3.2618
X7.35Y-3.4508
X7.4168Y-2.0832
X7.4168Y-2.2168
X7.4168Y-3.2895
X7.4168Y-3.4231
X7.4445Y-2.15
X7.4445Y-3.3563
X8.0637Y-2.15
X8.0637Y-3.3563
X8.0914Y-2.0832
X8.0914Y-2.2168
X8.0914Y-3.2895
X8.0914Y-3.4231
X8.1582Y-2.0555
X8.1582Y-2.2445
X8.1582Y-3.2618
X8.1582Y-3.4508
X8.225Y-2.0832
X8.225Y-2.2168
X8.225Y-3.2895
X8.225Y-3.4231
X8.2527Y-2.15
X8.2527Y-3.3563
T3
X2.132Y-3.3465
X2.2698Y-3.3465
X3.3Y-2.575
X3.3Y-2.7
X3.3496Y-3.6693
X3.3496Y-3.9693
X3.3661Y-2.9489
X3.3661Y-3.0867
X3.4496Y-3.6693
X3.4496Y-3.9693
X3.5496Y-3.6693
X3.5496Y-3.9693
X3.6496Y-3.6693
X3.6496Y-3.9693
X3.7Y-2.575
X3.7Y-2.7
T4
X2.9002Y-2.2618
X2.9547Y-2.15
X3.0093Y-2.2618
X3.0638Y-2.15
X3.1183Y-2.2618
X3.1728Y-2.15
X3.2274Y-2.2618
X3.2819Y-2.15
X3.3364Y-2.2618
X3.3909Y-2.15
X3.4455Y-2.2618
X3.5Y-2.15
X3.5545Y-2.2618
X3.6091Y-2.15
X3.6636Y-2.2618
X4.0587Y-4.124
X4.1587Y-4.124
X4.2587Y-4.124
X4.3587Y-4.124
X4.45Y-2.675
X4.4587Y-4.124
X4.55Y-2.675
X4.5587Y-4.124
X4.5864Y-2.2618
X4.6409Y-2.15
X4.65Y-2.675
X4.6587Y-4.124
X4.6955Y-2.2618
X4.75Y-2.15
X4.75Y-2.675
X4.7587Y-4.124
X4.8045Y-2.2618
X4.8587Y-4.124
X4.8591Y-2.15
X4.9136Y-2.2618
X4.9587Y-4.124
X4.9681Y-2.15
X5.0226Y-2.2618
X5.0587Y-4.124
X5.1587Y-4.124
X6.9685Y-2.3967
X6.9685Y-2.4967
X6.9685Y-2.5967
X6.9685Y-2.6967
X6.9685Y-2.7967
X6.9685Y-2.8967
X6.9685Y-2.9967
X7.2844Y-2.4272
X7.2844Y-2.5272
X7.2844Y-2.6272
X7.2844Y-2.7272
X7.2844Y-2.8272
X7.2844Y-2.9272
X7.2844Y-3.0272
T5
X2.0Y-2.15
X2.0Y-4.0
X2.6264Y-2.2059
X3.9374Y-2.2059
X4.3124Y-2.2059
X5.2967Y-2.2059
X6.85Y-2.15
X6.85Y-4.0
X7.35Y-2.15
X7.35Y-3.3563
X8.1582Y-2.15
X8.1582Y-3.3563
T6
X7.6634Y-2.1654
X7.8366Y-2.1654
M30
