%TF.GenerationSoftware,KiCad,Pcbnew,8.0.4*%
%TF.CreationDate,2024-07-28T20:14:14+02:00*%
%TF.ProjectId,BLDC_driver,424c4443-5f64-4726-9976-65722e6b6963,rev?*%
%TF.SameCoordinates,Original*%
%TF.FileFunction,Paste,Top*%
%TF.FilePolarity,Positive*%
%FSLAX46Y46*%
G04 Gerber Fmt 4.6, Leading zero omitted, Abs format (unit mm)*
G04 Created by KiCad (PCBNEW 8.0.4) date 2024-07-28 20:14:14*
%MOMM*%
%LPD*%
G01*
G04 APERTURE LIST*
G04 Aperture macros list*
%AMRoundRect*
0 Rectangle with rounded corners*
0 $1 Rounding radius*
0 $2 $3 $4 $5 $6 $7 $8 $9 X,Y pos of 4 corners*
0 Add a 4 corners polygon primitive as box body*
4,1,4,$2,$3,$4,$5,$6,$7,$8,$9,$2,$3,0*
0 Add four circle primitives for the rounded corners*
1,1,$1+$1,$2,$3*
1,1,$1+$1,$4,$5*
1,1,$1+$1,$6,$7*
1,1,$1+$1,$8,$9*
0 Add four rect primitives between the rounded corners*
20,1,$1+$1,$2,$3,$4,$5,0*
20,1,$1+$1,$4,$5,$6,$7,0*
20,1,$1+$1,$6,$7,$8,$9,0*
20,1,$1+$1,$8,$9,$2,$3,0*%
G04 Aperture macros list end*
%ADD10R,0.500000X2.500000*%
%ADD11R,2.000000X2.500000*%
%ADD12R,2.800000X1.000000*%
%ADD13R,1.000000X2.800000*%
%ADD14RoundRect,0.160000X0.160000X-0.197500X0.160000X0.197500X-0.160000X0.197500X-0.160000X-0.197500X0*%
%ADD15RoundRect,0.375000X-0.625000X-0.375000X0.625000X-0.375000X0.625000X0.375000X-0.625000X0.375000X0*%
%ADD16RoundRect,0.500000X-0.500000X-1.400000X0.500000X-1.400000X0.500000X1.400000X-0.500000X1.400000X0*%
%ADD17RoundRect,0.375000X0.625000X0.375000X-0.625000X0.375000X-0.625000X-0.375000X0.625000X-0.375000X0*%
%ADD18RoundRect,0.500000X0.500000X1.400000X-0.500000X1.400000X-0.500000X-1.400000X0.500000X-1.400000X0*%
%ADD19RoundRect,0.250000X-2.000000X1.400000X-2.000000X-1.400000X2.000000X-1.400000X2.000000X1.400000X0*%
%ADD20R,0.900000X0.900000*%
%ADD21R,1.500000X0.900000*%
%ADD22R,0.900000X1.500000*%
%ADD23RoundRect,0.150000X-0.825000X-0.150000X0.825000X-0.150000X0.825000X0.150000X-0.825000X0.150000X0*%
%ADD24RoundRect,0.150000X0.150000X-0.850000X0.150000X0.850000X-0.150000X0.850000X-0.150000X-0.850000X0*%
%ADD25R,0.600000X2.000000*%
%ADD26RoundRect,0.250000X0.300000X-2.050000X0.300000X2.050000X-0.300000X2.050000X-0.300000X-2.050000X0*%
%ADD27RoundRect,0.250000X2.375000X-2.025000X2.375000X2.025000X-2.375000X2.025000X-2.375000X-2.025000X0*%
%ADD28RoundRect,0.160000X0.197500X0.160000X-0.197500X0.160000X-0.197500X-0.160000X0.197500X-0.160000X0*%
%ADD29RoundRect,0.160000X-0.197500X-0.160000X0.197500X-0.160000X0.197500X0.160000X-0.197500X0.160000X0*%
%ADD30RoundRect,0.160000X-0.160000X0.197500X-0.160000X-0.197500X0.160000X-0.197500X0.160000X0.197500X0*%
%ADD31RoundRect,0.150000X-0.150000X0.587500X-0.150000X-0.587500X0.150000X-0.587500X0.150000X0.587500X0*%
%ADD32RoundRect,0.150000X0.150000X-0.587500X0.150000X0.587500X-0.150000X0.587500X-0.150000X-0.587500X0*%
%ADD33RoundRect,1.000000X-1.750000X1.000000X-1.750000X-1.000000X1.750000X-1.000000X1.750000X1.000000X0*%
%ADD34RoundRect,0.237500X-0.287500X-0.237500X0.287500X-0.237500X0.287500X0.237500X-0.287500X0.237500X0*%
%ADD35RoundRect,0.237500X0.287500X0.237500X-0.287500X0.237500X-0.287500X-0.237500X0.287500X-0.237500X0*%
%ADD36RoundRect,0.237500X0.237500X-0.300000X0.237500X0.300000X-0.237500X0.300000X-0.237500X-0.300000X0*%
%ADD37RoundRect,0.250000X0.475000X-0.337500X0.475000X0.337500X-0.475000X0.337500X-0.475000X-0.337500X0*%
%ADD38RoundRect,0.250000X-0.475000X0.337500X-0.475000X-0.337500X0.475000X-0.337500X0.475000X0.337500X0*%
%ADD39RoundRect,0.237500X-0.237500X0.300000X-0.237500X-0.300000X0.237500X-0.300000X0.237500X0.300000X0*%
%ADD40RoundRect,0.237500X0.300000X0.237500X-0.300000X0.237500X-0.300000X-0.237500X0.300000X-0.237500X0*%
%ADD41RoundRect,0.237500X-0.300000X-0.237500X0.300000X-0.237500X0.300000X0.237500X-0.300000X0.237500X0*%
%ADD42RoundRect,0.250000X-0.337500X-0.475000X0.337500X-0.475000X0.337500X0.475000X-0.337500X0.475000X0*%
%ADD43RoundRect,0.250000X0.337500X0.475000X-0.337500X0.475000X-0.337500X-0.475000X0.337500X-0.475000X0*%
G04 APERTURE END LIST*
D10*
%TO.C,J7*%
X198450000Y-57600000D03*
X197650000Y-57600000D03*
X196850000Y-57600000D03*
X196050000Y-57600000D03*
X195250000Y-57600000D03*
D11*
X201250000Y-57600000D03*
X201250000Y-52100000D03*
X192450000Y-57600000D03*
X192450000Y-52100000D03*
%TD*%
D12*
%TO.C,SW5*%
X141615000Y-88975000D03*
X147415000Y-88975000D03*
X141615000Y-92975000D03*
X147415000Y-92975000D03*
%TD*%
%TO.C,SW4*%
X167650000Y-88975000D03*
X173450000Y-88975000D03*
X167650000Y-92975000D03*
X173450000Y-92975000D03*
%TD*%
%TO.C,SW3*%
X154950000Y-98500000D03*
X160750000Y-98500000D03*
X154950000Y-102500000D03*
X160750000Y-102500000D03*
%TD*%
%TO.C,SW2*%
X154950000Y-80085000D03*
X160750000Y-80085000D03*
X154950000Y-84085000D03*
X160750000Y-84085000D03*
%TD*%
D13*
%TO.C,RESET*%
X139764000Y-74380000D03*
X139764000Y-68580000D03*
X143764000Y-74380000D03*
X143764000Y-68580000D03*
%TD*%
D14*
%TO.C,R17*%
X120000000Y-72445000D03*
X120000000Y-71250000D03*
%TD*%
%TO.C,R16*%
X116750000Y-72445000D03*
X116750000Y-71250000D03*
%TD*%
D15*
%TO.C,U7*%
X204495000Y-63450000D03*
X204495000Y-65750000D03*
X204495000Y-68050000D03*
D16*
X210795000Y-65750000D03*
%TD*%
D17*
%TO.C,U3*%
X64400000Y-96800000D03*
X64400000Y-94500000D03*
X64400000Y-92200000D03*
D18*
X58100000Y-94500000D03*
%TD*%
D19*
%TO.C,D2*%
X68350000Y-85000000D03*
X77150000Y-85000000D03*
%TD*%
D20*
%TO.C,U1*%
X158100000Y-66610000D03*
X158100000Y-65210000D03*
X158100000Y-63810000D03*
X156700000Y-66610000D03*
X156700000Y-66610000D03*
X156700000Y-65210000D03*
X156700000Y-63810000D03*
X155300000Y-66610000D03*
X155300000Y-66610000D03*
X155300000Y-65210000D03*
X155300000Y-63810000D03*
X155300000Y-63810000D03*
D21*
X166950000Y-57490000D03*
X166950000Y-58760000D03*
X166950000Y-60030000D03*
X166950000Y-61300000D03*
X166950000Y-62570000D03*
X166950000Y-63840000D03*
X166950000Y-65110000D03*
X166950000Y-66380000D03*
X166950000Y-67650000D03*
X166950000Y-68920000D03*
X166950000Y-70190000D03*
X166950000Y-71460000D03*
X166950000Y-72730000D03*
X166950000Y-74000000D03*
D22*
X163910000Y-75250000D03*
X162640000Y-75250000D03*
X161370000Y-75250000D03*
X160100000Y-75250000D03*
X158830000Y-75250000D03*
X157560000Y-75250000D03*
X156290000Y-75250000D03*
X155020000Y-75250000D03*
X153750000Y-75250000D03*
X152480000Y-75250000D03*
D21*
X149450000Y-74000000D03*
X149450000Y-72730000D03*
X149450000Y-71460000D03*
X149450000Y-70190000D03*
X149450000Y-68920000D03*
X149450000Y-67650000D03*
X149450000Y-66380000D03*
X149450000Y-65110000D03*
X149450000Y-63840000D03*
X149450000Y-62570000D03*
X149450000Y-61300000D03*
X149450000Y-60030000D03*
X149450000Y-58760000D03*
X149450000Y-57490000D03*
%TD*%
D23*
%TO.C,U8*%
X196225000Y-66305000D03*
X196225000Y-67575000D03*
X196225000Y-68845000D03*
X196225000Y-70115000D03*
X196225000Y-71385000D03*
X196225000Y-72655000D03*
X196225000Y-73925000D03*
X196225000Y-75195000D03*
X191275000Y-75195000D03*
X191275000Y-73925000D03*
X191275000Y-72655000D03*
X191275000Y-71385000D03*
X191275000Y-70115000D03*
X191275000Y-68845000D03*
X191275000Y-67575000D03*
X191275000Y-66305000D03*
%TD*%
D24*
%TO.C,U6*%
X123055000Y-82000000D03*
X124325000Y-82000000D03*
X125595000Y-82000000D03*
X126865000Y-82000000D03*
X128135000Y-82000000D03*
X129405000Y-82000000D03*
X130675000Y-82000000D03*
X131945000Y-82000000D03*
X131945000Y-77000000D03*
X130675000Y-77000000D03*
X129405000Y-77000000D03*
X128135000Y-77000000D03*
X126865000Y-77000000D03*
X125595000Y-77000000D03*
X124325000Y-77000000D03*
X123055000Y-77000000D03*
%TD*%
D25*
%TO.C,U5*%
X75095000Y-91525000D03*
X76365000Y-91525000D03*
X77635000Y-91525000D03*
X78905000Y-91525000D03*
X78905000Y-96975000D03*
X77635000Y-96975000D03*
X76365000Y-96975000D03*
X75095000Y-96975000D03*
%TD*%
D26*
%TO.C,U2*%
X76825000Y-77615000D03*
X75125000Y-77615000D03*
D27*
X76200000Y-66040000D03*
X70650000Y-66040000D03*
X76200000Y-70890000D03*
X70650000Y-70890000D03*
D26*
X73425000Y-77615000D03*
X71725000Y-77615000D03*
X70025000Y-77615000D03*
%TD*%
D14*
%TO.C,R15*%
X206737500Y-75485000D03*
X206737500Y-74290000D03*
%TD*%
%TO.C,R14*%
X201300000Y-75722500D03*
X201300000Y-74527500D03*
%TD*%
D28*
%TO.C,R13*%
X205152500Y-72000000D03*
X206347500Y-72000000D03*
%TD*%
%TO.C,R12*%
X95490000Y-85011500D03*
X94295000Y-85011500D03*
%TD*%
D29*
%TO.C,R11*%
X175335000Y-81280000D03*
X176530000Y-81280000D03*
%TD*%
%TO.C,R10*%
X94116000Y-78915500D03*
X95311000Y-78915500D03*
%TD*%
D30*
%TO.C,R9*%
X93750000Y-89988000D03*
X93750000Y-88793000D03*
%TD*%
%TO.C,R8*%
X84500000Y-89835500D03*
X84500000Y-88640500D03*
%TD*%
%TO.C,R7*%
X90750000Y-89988000D03*
X90750000Y-88793000D03*
%TD*%
D29*
%TO.C,R6*%
X89597500Y-104238000D03*
X88402500Y-104238000D03*
%TD*%
D14*
%TO.C,R5*%
X87750000Y-88738000D03*
X87750000Y-89933000D03*
%TD*%
D29*
%TO.C,R4*%
X62500000Y-100500000D03*
X63695000Y-100500000D03*
%TD*%
D28*
%TO.C,R2*%
X144538100Y-65532000D03*
X145733100Y-65532000D03*
%TD*%
D31*
%TO.C,Q3*%
X206750000Y-77750000D03*
X204850000Y-77750000D03*
X205800000Y-79625000D03*
%TD*%
%TO.C,Q2*%
X201250000Y-77750000D03*
X199350000Y-77750000D03*
X200300000Y-79625000D03*
%TD*%
D32*
%TO.C,Q1*%
X94554000Y-82979500D03*
X96454000Y-82979500D03*
X95504000Y-81104500D03*
%TD*%
D33*
%TO.C,L1*%
X58000000Y-76000000D03*
X58000000Y-67500000D03*
%TD*%
D34*
%TO.C,D3*%
X210625000Y-72000000D03*
X208875000Y-72000000D03*
%TD*%
D35*
%TO.C,D1*%
X59375000Y-100500000D03*
X57625000Y-100500000D03*
%TD*%
D36*
%TO.C,C19*%
X197250000Y-64112500D03*
X197250000Y-62387500D03*
%TD*%
D37*
%TO.C,C18*%
X201250000Y-63750000D03*
X201250000Y-61675000D03*
%TD*%
D38*
%TO.C,C17*%
X201000000Y-70037500D03*
X201000000Y-67962500D03*
%TD*%
D39*
%TO.C,C16*%
X131915000Y-85590000D03*
X131915000Y-87315000D03*
%TD*%
D40*
%TO.C,C15*%
X120787500Y-85378000D03*
X119062500Y-85378000D03*
%TD*%
D41*
%TO.C,C14*%
X123137500Y-85378000D03*
X124862500Y-85378000D03*
%TD*%
%TO.C,C13*%
X127422000Y-85378000D03*
X129147000Y-85378000D03*
%TD*%
D36*
%TO.C,C12*%
X123250000Y-73112500D03*
X123250000Y-71387500D03*
%TD*%
D40*
%TO.C,C10*%
X144579000Y-63246000D03*
X146304000Y-63246000D03*
%TD*%
D41*
%TO.C,C8*%
X77387500Y-101112500D03*
X79112500Y-101112500D03*
%TD*%
D38*
%TO.C,C6*%
X93980000Y-72212500D03*
X93980000Y-74287500D03*
%TD*%
%TO.C,C5*%
X68250000Y-94712500D03*
X68250000Y-96787500D03*
%TD*%
D42*
%TO.C,C4*%
X68212500Y-92250000D03*
X70287500Y-92250000D03*
%TD*%
D39*
%TO.C,C3*%
X81750000Y-88387500D03*
X81750000Y-90112500D03*
%TD*%
D40*
%TO.C,C2*%
X144579000Y-60960000D03*
X146304000Y-60960000D03*
%TD*%
D43*
%TO.C,C1*%
X144272000Y-58420000D03*
X146347000Y-58420000D03*
%TD*%
M02*
